npm warn Unknown env config "devdir". This will stop working in the next major version of npm. See `npm help npmrc` for supported config options.
◇ injected env (7) from .env // tip: ◈ encrypted .env [www.dotenvx.com]
2026-05-03 11:51:14 [32minfo[39m: audio: FFmpeg disponible
2026-05-03 11:51:14 [32minfo[39m: renderer:test — chaîne complète Al-Fatiha
2026-05-03 11:51:14 [32minfo[39m: quran-data: début fetch sourate {"number":1,"attempt":1}
2026-05-03 11:51:14 [32minfo[39m: quran-data: requête métadonnées sourate {"number":1,"url":"https://api.quran.com/api/v4/chapters/1?language=fr"}
2026-05-03 11:51:14 [32minfo[39m: quran-data: requête versets {"number":1,"page":1,"logLabel":"fr+131"}
2026-05-03 11:51:14 [32minfo[39m: quran-data: complément anglais (resource_id 20) {"number":1}
2026-05-03 11:51:14 [32minfo[39m: quran-data: requête versets {"number":1,"page":1,"logLabel":"en-sahih"}
2026-05-03 11:51:14 [32minfo[39m: quran-data: sourate chargée {"number":1,"verses":7}
2026-05-03 11:51:14 [32minfo[39m: audio: téléchargement {"sourateNumber":1,"url":"https://cdn.islamic.network/quran/audio/128/ar.alafasy/1.mp3"}
2026-05-03 11:51:14 [32minfo[39m: audio: normalisation loudnorm -14 LUFS {"sourateNumber":1,"outPath":"/Users/karim/quran-agent/tmp/audio_1.mp3"}
ffmpeg version 8.1 Copyright (c) 2000-2026 the FFmpeg developers
  built with Apple clang version 21.0.0 (clang-2100.0.123.102)
  configuration: --prefix=/opt/homebrew/Cellar/ffmpeg/8.1_1 --enable-shared --enable-pthreads --enable-version3 --cc=clang --host-cflags= --host-ldflags= --enable-ffplay --enable-gpl --enable-libsvtav1 --enable-libopus --enable-libx264 --enable-libmp3lame --enable-libdav1d --enable-libvmaf --enable-libvpx --enable-libx265 --enable-openssl --enable-videotoolbox --enable-audiotoolbox --enable-neon
  libavutil      60. 26.100 / 60. 26.100
  libavcodec     62. 28.100 / 62. 28.100
  libavformat    62. 12.100 / 62. 12.100
  libavdevice    62.  3.100 / 62.  3.100
  libavfilter    11. 14.100 / 11. 14.100
  libswscale      9.  5.100 /  9.  5.100
  libswresample   6.  3.100 /  6.  3.100
Input #0, mp3, from '/Users/karim/quran-agent/tmp/audio_1_raw.mp3':
  Metadata:
    title           : Al-Faatiha, Ayah 1 (1:1)
    artist          : Alafasy
    album           : The Holy Qur'an
    comment         : Brought to you by Sabbir.com
    genre           : Other
  Duration: 00:00:06.03, start: 0.025057, bitrate: 194 kb/s
  Stream #0:0: Audio: mp3 (mp3float), 44100 Hz, stereo, fltp, 192 kb/s, start 0.025057
    Metadata:
      encoder         : LAME3.92 
Stream mapping:
  Stream #0:0 -> #0:0 (mp3 (mp3float) -> mp3 (libmp3lame))
Press [q] to stop, [?] for help
Output #0, mp3, to '/Users/karim/quran-agent/tmp/audio_1.mp3':
  Metadata:
    TIT2            : Al-Faatiha, Ayah 1 (1:1)
    TPE1            : Alafasy
    TALB            : The Holy Qur'an
    comment         : Brought to you by Sabbir.com
    TCON            : Other
    TSSE            : Lavf62.12.100
  Stream #0:0: Audio: mp3, 48000 Hz, stereo, fltp
    Metadata:
      encoder         : Lavc62.28.100 libmp3lame
[out#0/mp3 @ 0x99ac24180] video:0KiB audio:95KiB subtitle:0KiB other streams:0KiB global headers:0KiB muxing overhead: 0.395257%
size=      95KiB time=00:00:06.10 bitrate= 127.9kbits/s speed=34.1x elapsed=0:00:00.17    
2026-05-03 11:51:15 [32minfo[39m: audio: fichier prêt {"outPath":"/Users/karim/quran-agent/tmp/audio_1.mp3"}
2026-05-03 11:51:15 [32minfo[39m: timestamps: début Whisper {"audioPath":"/Users/karim/quran-agent/tmp/audio_1.mp3","verses":7}
2026-05-03 11:51:17 [32minfo[39m: timestamps: segments Whisper reçus {"count":1}
2026-05-03 11:51:17 [32minfo[39m: theme-ai: analyse GPT-4o-mini {"sourate":1,"name":"L'ouverture"}
2026-05-03 11:51:18 [32minfo[39m: theme-ai: thème choisi {"chosen":"gratitude","raw":"gratitude"}
2026-05-03 11:51:18 [32minfo[39m: visuals: recherche images Pexels {"sourateNumber":1,"category":"gratitude","keywords":["sunrise","nature peaceful","open hands sky","golden light meadow"]}
2026-05-03 11:51:19 [32minfo[39m: visuals: image téléchargée {"keyword":"sunrise","path":"/Users/karim/quran-agent/tmp/visuals_1/image_1.jpg"}
2026-05-03 11:51:19 [32minfo[39m: visuals: image téléchargée {"keyword":"nature peaceful","path":"/Users/karim/quran-agent/tmp/visuals_1/image_2.jpg"}
2026-05-03 11:51:19 [32minfo[39m: visuals: image téléchargée {"keyword":"open hands sky","path":"/Users/karim/quran-agent/tmp/visuals_1/image_3.jpg"}
2026-05-03 11:51:19 [32minfo[39m: visuals: images prêtes {"count":3,"sourateNumber":1}
2026-05-03 11:51:19 [32minfo[39m: renderer: durée utilisée pour ASS / segments {"duration":6.031125,"sourateNumber":1}
2026-05-03 11:51:19 [32minfo[39m: renderer: fichiers ASS écrits {"assShort":"/Users/karim/quran-agent/output/subtitles_1_short.ass","assLong":"/Users/karim/quran-agent/output/subtitles_1_long.ass"}
2026-05-03 11:51:19 [32minfo[39m: renderer: FFmpeg passe1 (vidéo sans sous-titres) {"args":"ffmpeg -y -i /Users/karim/quran-agent/tmp/audio_1.mp3 -loop 1 -i /Users/karim/quran-agent/tmp/visuals_1/image_1.jpg -loop 1 -i /Users/karim/quran-agent/tmp/visuals_1/image_2.jpg -loop 1 -i /Users/karim/quran-agent/tmp/visuals_1/image_3.jpg -filter_complex [1:v]scale=1080:1920:force_original_aspect_ratio=increase,crop=1080:1920,setsar=1,format=yuv420p,fps=30[sc0];[sc0]zoompan=z='min(zoom+0.0012\\,1.09)':x='iw/2-(iw/zoom/2)':y='ih/2-(ih/zoom/2)':d=60:s=1080x1920:fps=30[kb0];[kb0]trim=duration=2.0104,setpts=PTS-STARTPTS[pt0];[2:v]scale=1080:1920:force_original_aspect_ratio=increase,crop=1080:1920,setsar=1,format=yuv420p,fps=30[sc1];[sc1]zoompan=z='min(zoom+0.0010\\,1.06)':x='iw/2-(iw/zoom/2)':y='ih/2-(ih/zoom/2)':d=60:s=1080x1920:fps=30[kb1];[kb1]trim=duration=2.0104,setpts=PTS-STARTPTS[pt1];[3:v]scale=1080:1920:force_original_aspect_ratio=increase,crop=1080:1920,setsar=1,format=yuv420p,fps=30[sc2];[sc2]zoompan=z='min(zoom+0.0012\\,1.09)':x='iw/2-(iw/zoom/2)':y='ih/2-(ih/zoom/2)':d=60:s=1080x1920:fps=30[kb2];[kb2]trim=duration=2.0104,setpts=PTS-STARTPTS[pt2];[pt0][pt1][pt2]concat=n=3:v=1:a=0[vcat] -map [vcat] -map 0:a -c:v libx264 -preset fast -crf 23 -c:a aac -b:a 192k -shortest -movflags +faststart /Users/karim/quran-agent/tmp/nosubs_1_1080x1920.mp4"}
ffmpeg version 8.1 Copyright (c) 2000-2026 the FFmpeg developers
  built with Apple clang version 21.0.0 (clang-2100.0.123.102)
  configuration: --prefix=/opt/homebrew/Cellar/ffmpeg/8.1_1 --enable-shared --enable-pthreads --enable-version3 --cc=clang --host-cflags= --host-ldflags= --enable-ffplay --enable-gpl --enable-libsvtav1 --enable-libopus --enable-libx264 --enable-libmp3lame --enable-libdav1d --enable-libvmaf --enable-libvpx --enable-libx265 --enable-openssl --enable-videotoolbox --enable-audiotoolbox --enable-neon
  libavutil      60. 26.100 / 60. 26.100
  libavcodec     62. 28.100 / 62. 28.100
  libavformat    62. 12.100 / 62. 12.100
  libavdevice    62.  3.100 / 62.  3.100
  libavfilter    11. 14.100 / 11. 14.100
  libswscale      9.  5.100 /  9.  5.100
  libswresample   6.  3.100 /  6.  3.100
Input #0, mp3, from '/Users/karim/quran-agent/tmp/audio_1.mp3':
  Metadata:
    title           : Al-Faatiha, Ayah 1 (1:1)
    artist          : Alafasy
    album           : The Holy Qur'an
    comment         : Brought to you by Sabbir.com
    genre           : Other
    encoder         : Lavf62.12.100
  Duration: 00:00:06.03, start: 0.023021, bitrate: 129 kb/s
  Stream #0:0: Audio: mp3 (mp3float), 48000 Hz, stereo, fltp, 128 kb/s, start 0.023021
    Metadata:
      encoder         : Lavc62.28
Input #1, image2, from '/Users/karim/quran-agent/tmp/visuals_1/image_1.jpg':
  Duration: 00:00:00.04, start: 0.000000, bitrate: 7543 kb/s
  Stream #1:0: Video: mjpeg (Progressive), yuvj420p(pc, bt470bg/unknown/unknown), 975x1300 [SAR 72:72 DAR 3:4], 25 fps, 25 tbr, 25 tbn
Input #2, image2, from '/Users/karim/quran-agent/tmp/visuals_1/image_2.jpg':
  Duration: 00:00:00.04, start: 0.000000, bitrate: 11855 kb/s
  Stream #2:0: Video: mjpeg (Progressive), yuvj420p(pc, bt470bg/unknown/unknown), 715x1300 [SAR 72:72 DAR 11:20], 25 fps, 25 tbr, 25 tbn
Input #3, image2, from '/Users/karim/quran-agent/tmp/visuals_1/image_3.jpg':
  Duration: 00:00:00.04, start: 0.000000, bitrate: 9108 kb/s
  Stream #3:0: Video: mjpeg (Progressive), yuvj420p(pc, bt470bg/unknown/unknown), 803x1300 [SAR 72:72 DAR 803:1300], 25 fps, 25 tbr, 25 tbn
Stream mapping:
  Stream #1:0 (mjpeg) -> scale:default
  Stream #2:0 (mjpeg) -> scale:default
  Stream #3:0 (mjpeg) -> scale:default
  concat:out:v0 -> Stream #0:0 (libx264)
  Stream #0:0 -> #0:1 (mp3 (mp3float) -> aac (native))
Press [q] to stop, [?] for help
[swscaler @ 0xa97f50000] deprecated pixel format used, make sure you did set range correctly
[swscaler @ 0xa99778000] deprecated pixel format used, make sure you did set range correctly
[swscaler @ 0xa99d60000] deprecated pixel format used, make sure you did set range correctly
[libx264 @ 0xa97045f80] using SAR=1/1
[libx264 @ 0xa97045f80] using cpu capabilities: ARMv8 NEON DotProd I8MM
[libx264 @ 0xa97045f80] profile High, level 4.0, 4:2:0, 8-bit
[libx264 @ 0xa97045f80] 264 - core 165 r3222 b35605a - H.264/MPEG-4 AVC codec - Copyleft 2003-2025 - http://www.videolan.org/x264.html - options: cabac=1 ref=2 deblock=1:0:0 analyse=0x3:0x113 me=hex subme=6 psy=1 psy_rd=1.00:0.00 mixed_ref=1 me_range=16 chroma_me=1 trellis=1 8x8dct=1 cqm=0 deadzone=21,11 fast_pskip=1 chroma_qp_offset=-2 threads=15 lookahead_threads=2 sliced_threads=0 nr=0 decimate=1 interlaced=0 bluray_compat=0 constrained_intra=0 bframes=3 b_pyramid=2 b_adapt=1 b_bias=0 direct=1 weightb=1 open_gop=0 weightp=1 keyint=250 keyint_min=25 scenecut=40 intra_refresh=0 rc_lookahead=30 rc=crf mbtree=1 crf=23.0 qcomp=0.60 qpmin=0 qpmax=69 qpstep=4 ip_ratio=1.40 aq=1:1.00
Output #0, mp4, to '/Users/karim/quran-agent/tmp/nosubs_1_1080x1920.mp4':
  Metadata:
    title           : Al-Faatiha, Ayah 1 (1:1)
    artist          : Alafasy
    album           : The Holy Qur'an
    comment         : Brought to you by Sabbir.com
    genre           : Other
    encoder         : Lavf62.12.100
  Stream #0:0: Video: h264 (avc1 / 0x31637661), yuv420p(pc, bt470bg/unknown/unknown, progressive), 1080x1920 [SAR 1:1 DAR 9:16], q=2-31, 30 fps, 15360 tbn
    Metadata:
      encoder         : Lavc62.28.100 libx264
    Side data:
      ICC Profile: (524 bytes)
      CPB properties: bitrate max/min/avg: 0/0/0 buffer size: 0 vbv_delay: N/A
  Stream #0:1: Audio: aac (LC) (mp4a / 0x6134706D), 48000 Hz, stereo, fltp, 192 kb/s
    Metadata:
      encoder         : Lavc62.28.100 aac
frame=   43 fps=0.0 q=29.0 size=     256KiB time=00:00:01.36 bitrate=1534.8kbits/s speed=2.71x elapsed=0:00:00.50    frame=  145 fps=143 q=29.0 size=     768KiB time=N/A bitrate=N/A speed=N/A elapsed=0:00:01.01    [mp4 @ 0xa96c30a00] Starting second pass: moving the moov atom to the beginning of the file
[out#0/mp4 @ 0xa96c2c6c0] video:1052KiB audio:142KiB subtitle:0KiB other streams:0KiB global headers:0KiB muxing overhead: 0.716388%
frame=  180 fps=160 q=-1.0 Lsize=    1202KiB time=00:00:05.93 bitrate=1660.0kbits/s speed=5.29x elapsed=0:00:01.12    
[libx264 @ 0xa97045f80] frame I:3     Avg QP:16.02  size: 91900
[libx264 @ 0xa97045f80] frame P:45    Avg QP:19.24  size:  8210
[libx264 @ 0xa97045f80] frame B:132   Avg QP:23.26  size:  3269
[libx264 @ 0xa97045f80] consecutive B-frames:  1.7%  0.0%  5.0% 93.3%
[libx264 @ 0xa97045f80] mb I  I16..4: 14.3% 76.4%  9.3%
[libx264 @ 0xa97045f80] mb P  I16..4:  0.7%  0.9%  0.0%  P16..4: 32.7%  5.2%  2.0%  0.0%  0.0%    skip:58.5%
[libx264 @ 0xa97045f80] mb B  I16..4:  0.8%  0.3%  0.0%  B16..8: 21.0%  1.0%  0.0%  direct: 4.2%  skip:72.6%  L0:55.9% L1:43.4% BI: 0.7%
[libx264 @ 0xa97045f80] 8x8 transform intra:59.7% inter:94.4%
[libx264 @ 0xa97045f80] coded y,uvDC,uvAC intra: 39.2% 52.5% 24.2% inter: 1.8% 6.2% 0.1%
[libx264 @ 0xa97045f80] i16 v,h,dc,p: 26% 49% 13% 12%
[libx264 @ 0xa97045f80] i8 v,h,dc,ddl,ddr,vr,hd,vl,hu: 21% 28% 28%  3%  4%  3%  4%  3%  5%
[libx264 @ 0xa97045f80] i4 v,h,dc,ddl,ddr,vr,hd,vl,hu: 28% 29% 16%  4%  6%  4%  5%  3%  4%
[libx264 @ 0xa97045f80] i8c dc,h,v,p: 48% 32% 14%  7%
[libx264 @ 0xa97045f80] Weighted P-Frames: Y:0.0% UV:0.0%
[libx264 @ 0xa97045f80] ref P L0: 67.3% 32.7%
[libx264 @ 0xa97045f80] ref B L0: 72.9% 27.1%
[libx264 @ 0xa97045f80] ref B L1: 85.5% 14.5%
[libx264 @ 0xa97045f80] kb/s:1435.62
[aac @ 0xa97046680] Qavg: 482.096
2026-05-03 11:51:20 [32minfo[39m: renderer: FFmpeg passe1 (vidéo sans sous-titres) OK
2026-05-03 11:51:20 [32minfo[39m: renderer: ASS copié pour brûlage {"burnPath":"/Users/karim/quran-agent/tmp/assburn_1_1080x1920.ass"}
2026-05-03 11:51:20 [32minfo[39m: renderer: passe2 — binaire ffmpeg-static (libass) {"path":"/Users/karim/quran-agent/node_modules/ffmpeg-static/ffmpeg"}
2026-05-03 11:51:20 [32minfo[39m: renderer: FFmpeg passe2 (brûlage ASS) {"cwd":"/Users/karim/quran-agent/tmp","bin":"/Users/karim/quran-agent/node_modules/ffmpeg-static/ffmpeg","args":"/Users/karim/quran-agent/node_modules/ffmpeg-static/ffmpeg -y -i /Users/karim/quran-agent/tmp/nosubs_1_1080x1920.mp4 -vf ass=assburn_1_1080x1920.ass -c:v libx264 -preset fast -crf 23 -c:a copy -movflags +faststart /Users/karim/quran-agent/output/sourate_1_short.mp4"}
ffmpeg version 6.0 Copyright (c) 2000-2023 the FFmpeg developers
  built with Apple clang version 13.1.6 (clang-1316.0.21.2.5)
  configuration: --prefix=/Volumes/tempdisk/sw --extra-cflags=-fno-stack-check --arch=arm64 --cc=/usr/bin/clang --enable-gpl --enable-libvmaf --enable-libbluray --enable-libopenjpeg --enable-libopus --enable-libmp3lame --enable-libx264 --enable-libx265 --enable-libvpx --enable-libwebp --enable-libass --enable-libfreetype --enable-fontconfig --enable-libtheora --enable-libvorbis --enable-libsnappy --enable-libaom --enable-libvidstab --enable-libzimg --enable-libsvtav1 --enable-libkvazaar --enable-version3 --pkg-config-flags=--static --enable-ffplay --enable-postproc --enable-nonfree --enable-neon --enable-runtime-cpudetect --disable-indev=qtkit --disable-indev=x11grab_xcb
  libavutil      58.  2.100 / 58.  2.100
  libavcodec     60.  3.100 / 60.  3.100
  libavformat    60.  3.100 / 60.  3.100
  libavdevice    60.  1.100 / 60.  1.100
  libavfilter     9.  3.100 /  9.  3.100
  libswscale      7.  1.100 /  7.  1.100
  libswresample   4. 10.100 /  4. 10.100
  libpostproc    57.  1.100 / 57.  1.100
Input #0, mov,mp4,m4a,3gp,3g2,mj2, from '/Users/karim/quran-agent/tmp/nosubs_1_1080x1920.mp4':
  Metadata:
    major_brand     : isom
    minor_version   : 512
    compatible_brands: isomiso2avc1mp41
    title           : Al-Faatiha, Ayah 1 (1:1)
    artist          : Alafasy
    album           : The Holy Qur'an
    encoder         : Lavf62.12.100
    comment         : Brought to you by Sabbir.com
    genre           : Other
  Duration: 00:00:06.00, start: 0.000000, bitrate: 1641 kb/s
  Stream #0:0[0x1](und): Video: h264 (High) (avc1 / 0x31637661), yuvj420p(pc, bt470bg/unknown/unknown, progressive), 1080x1920 [SAR 1:1 DAR 9:16], 1436 kb/s, 30 fps, 30 tbr, 15360 tbn (default)
    Metadata:
      handler_name    : VideoHandler
      vendor_id       : [0][0][0][0]
      encoder         : Lavc62.28.100 libx264
    Side data:
      ICC Profile
  Stream #0:1[0x2](und): Audio: aac (LC) (mp4a / 0x6134706D), 48000 Hz, stereo, fltp, 192 kb/s (default)
    Metadata:
      handler_name    : SoundHandler
      vendor_id       : [0][0][0][0]
Stream mapping:
  Stream #0:0 -> #0:0 (h264 (native) -> h264 (libx264))
  Stream #0:1 -> #0:1 (copy)
Press [q] to stop, [?] for help
[Parsed_ass_0 @ 0x600002af4000] libass API version: 0x1700000
[Parsed_ass_0 @ 0x600002af4000] libass source: tarball: 0.17.0
[Parsed_ass_0 @ 0x600002af4000] Shaper: FriBidi 1.0.12 (SIMPLE) HarfBuzz-ng 6.0.0 (COMPLEX)
[Parsed_ass_0 @ 0x600002af4000] Using font provider coretext
[Parsed_ass_0 @ 0x600002af4000] Added subtitle file: 'assburn_1_1080x1920.ass' (4 styles, 21 events)
[Parsed_ass_0 @ 0x600002af4000] fontselect: (Arial Unicode MS, 700, 0) -> /System/Library/Fonts/Supplemental/Arial Unicode.ttf, -1, ArialUnicodeMS
[Parsed_ass_0 @ 0x600002af4000] fontselect: (Arial, 400, 0) -> /System/Library/Fonts/Supplemental/Arial.ttf, -1, ArialMT
[Parsed_ass_0 @ 0x600002af4000] fontselect: (Arial, 400, 100) -> /System/Library/Fonts/Supplemental/Arial Italic.ttf, -1, Arial-ItalicMT
[Parsed_ass_0 @ 0x600002af4000] Glyph 0x653 not found, selecting one more font for (Arial Unicode MS, 700, 0)
[Parsed_ass_0 @ 0x600002af4000] fontselect: (Arial Unicode MS, 700, 0) -> /System/Library/Fonts/GeezaPro.ttc, -1, GeezaPro-Bold
[libx264 @ 0x141710520] using SAR=1/1
[libx264 @ 0x141710520] using cpu capabilities: ARMv8 NEON
[libx264 @ 0x141710520] profile High, level 4.0, 4:2:0, 8-bit
[libx264 @ 0x141710520] 264 - core 164 r3075 66a5bc1 - H.264/MPEG-4 AVC codec - Copyleft 2003-2021 - http://www.videolan.org/x264.html - options: cabac=1 ref=2 deblock=1:0:0 analyse=0x3:0x113 me=hex subme=6 psy=1 psy_rd=1.00:0.00 mixed_ref=1 me_range=16 chroma_me=1 trellis=1 8x8dct=1 cqm=0 deadzone=21,11 fast_pskip=1 chroma_qp_offset=-2 threads=15 lookahead_threads=2 sliced_threads=0 nr=0 decimate=1 interlaced=0 bluray_compat=0 constrained_intra=0 bframes=3 b_pyramid=2 b_adapt=1 b_bias=0 direct=1 weightb=1 open_gop=0 weightp=1 keyint=250 keyint_min=25 scenecut=40 intra_refresh=0 rc_lookahead=30 rc=crf mbtree=1 crf=23.0 qcomp=0.60 qpmin=0 qpmax=69 qpstep=4 ip_ratio=1.40 aq=1:1.00
Output #0, mp4, to '/Users/karim/quran-agent/output/sourate_1_short.mp4':
  Metadata:
    major_brand     : isom
    minor_version   : 512
    compatible_brands: isomiso2avc1mp41
    title           : Al-Faatiha, Ayah 1 (1:1)
    artist          : Alafasy
    album           : The Holy Qur'an
    genre           : Other
    comment         : Brought to you by Sabbir.com
    encoder         : Lavf60.3.100
  Stream #0:0(und): Video: h264 (avc1 / 0x31637661), yuvj420p(pc, bt470bg/unknown/unknown, progressive), 1080x1920 [SAR 1:1 DAR 9:16], q=2-31, 30 fps, 15360 tbn (default)
    Metadata:
      handler_name    : VideoHandler
      vendor_id       : [0][0][0][0]
      encoder         : Lavc60.3.100 libx264
    Side data:
      cpb: bitrate max/min/avg: 0/0/0 buffer size: 0 vbv_delay: N/A
      ICC Profile
  Stream #0:1(und): Audio: aac (LC) (mp4a / 0x6134706D), 48000 Hz, stereo, fltp, 192 kb/s (default)
    Metadata:
      handler_name    : SoundHandler
      vendor_id       : [0][0][0][0]
frame=    0 fps=0.0 q=0.0 size=       0kB time=00:00:00.32 bitrate=   1.2kbits/s speed=63.9x    frame=   19 fps=0.0 q=29.0 size=     256kB time=00:00:02.60 bitrate= 805.9kbits/s speed= 5.1x    frame=   89 fps= 88 q=29.0 size=     768kB time=00:00:04.94 bitrate=1271.3kbits/s speed=4.88x    [mp4 @ 0x14170f7b0] Starting second pass: moving the moov atom to the beginning of the file
frame=  180 fps=126 q=-1.0 Lsize=    1665kB time=00:00:05.97 bitrate=2284.1kbits/s speed=4.19x    
video:1515kB audio:142kB subtitle:0kB other streams:0kB global headers:0kB muxing overhead: 0.517006%
[libx264 @ 0x141710520] frame I:1     Avg QP:19.62  size:204562
[libx264 @ 0x141710520] frame P:45    Avg QP:21.33  size: 18529
[libx264 @ 0x141710520] frame B:134   Avg QP:23.41  size:  3826
[libx264 @ 0x141710520] consecutive B-frames:  0.6%  0.0%  1.7% 97.8%
[libx264 @ 0x141710520] mb I  I16..4: 22.5% 48.8% 28.6%
[libx264 @ 0x141710520] mb P  I16..4:  1.3%  3.6%  0.6%  P16..4: 35.9%  5.8%  2.9%  0.0%  0.0%    skip:50.0%
[libx264 @ 0x141710520] mb B  I16..4:  0.8%  0.3%  0.0%  B16..8: 20.2%  1.4%  0.0%  direct: 5.5%  skip:71.8%  L0:49.4% L1:49.4% BI: 1.2%
[libx264 @ 0x141710520] 8x8 transform intra:51.8% inter:82.3%
[libx264 @ 0x141710520] coded y,uvDC,uvAC intra: 33.2% 55.6% 17.7% inter: 3.3% 9.2% 0.3%
[libx264 @ 0x141710520] i16 v,h,dc,p: 29% 41% 16% 15%
[libx264 @ 0x141710520] i8 v,h,dc,ddl,ddr,vr,hd,vl,hu: 18% 26% 36%  3%  3%  3%  4%  3%  4%
[libx264 @ 0x141710520] i4 v,h,dc,ddl,ddr,vr,hd,vl,hu: 27% 30% 13%  4%  5%  5%  6%  5%  6%
[libx264 @ 0x141710520] i8c dc,h,v,p: 50% 31% 14%  5%
[libx264 @ 0x141710520] Weighted P-Frames: Y:0.0% UV:0.0%
[libx264 @ 0x141710520] ref P L0: 64.2% 35.8%
[libx264 @ 0x141710520] ref B L0: 71.9% 28.1%
[libx264 @ 0x141710520] ref B L1: 84.0% 16.0%
[libx264 @ 0x141710520] kb/s:2068.03
2026-05-03 11:51:21 [32minfo[39m: renderer: FFmpeg passe2 (brûlage ASS) OK
2026-05-03 11:51:21 [32minfo[39m: renderer: fichier temporaire supprimé {"tempNoSubs":"/Users/karim/quran-agent/tmp/nosubs_1_1080x1920.mp4"}
2026-05-03 11:51:21 [32minfo[39m: renderer: FFmpeg passe1 (vidéo sans sous-titres) {"args":"ffmpeg -y -i /Users/karim/quran-agent/tmp/audio_1.mp3 -loop 1 -i /Users/karim/quran-agent/tmp/visuals_1/image_1.jpg -loop 1 -i /Users/karim/quran-agent/tmp/visuals_1/image_2.jpg -loop 1 -i /Users/karim/quran-agent/tmp/visuals_1/image_3.jpg -filter_complex [1:v]scale=1920:1080:force_original_aspect_ratio=increase,crop=1920:1080,setsar=1,format=yuv420p,fps=30[sc0];[sc0]zoompan=z='min(zoom+0.0012\\,1.09)':x='iw/2-(iw/zoom/2)':y='ih/2-(ih/zoom/2)':d=60:s=1920x1080:fps=30[kb0];[kb0]trim=duration=2.0104,setpts=PTS-STARTPTS[pt0];[2:v]scale=1920:1080:force_original_aspect_ratio=increase,crop=1920:1080,setsar=1,format=yuv420p,fps=30[sc1];[sc1]zoompan=z='min(zoom+0.0010\\,1.06)':x='iw/2-(iw/zoom/2)':y='ih/2-(ih/zoom/2)':d=60:s=1920x1080:fps=30[kb1];[kb1]trim=duration=2.0104,setpts=PTS-STARTPTS[pt1];[3:v]scale=1920:1080:force_original_aspect_ratio=increase,crop=1920:1080,setsar=1,format=yuv420p,fps=30[sc2];[sc2]zoompan=z='min(zoom+0.0012\\,1.09)':x='iw/2-(iw/zoom/2)':y='ih/2-(ih/zoom/2)':d=60:s=1920x1080:fps=30[kb2];[kb2]trim=duration=2.0104,setpts=PTS-STARTPTS[pt2];[pt0][pt1][pt2]concat=n=3:v=1:a=0[vcat] -map [vcat] -map 0:a -c:v libx264 -preset fast -crf 23 -c:a aac -b:a 192k -shortest -movflags +faststart /Users/karim/quran-agent/tmp/nosubs_1_1920x1080.mp4"}
ffmpeg version 8.1 Copyright (c) 2000-2026 the FFmpeg developers
  built with Apple clang version 21.0.0 (clang-2100.0.123.102)
  configuration: --prefix=/opt/homebrew/Cellar/ffmpeg/8.1_1 --enable-shared --enable-pthreads --enable-version3 --cc=clang --host-cflags= --host-ldflags= --enable-ffplay --enable-gpl --enable-libsvtav1 --enable-libopus --enable-libx264 --enable-libmp3lame --enable-libdav1d --enable-libvmaf --enable-libvpx --enable-libx265 --enable-openssl --enable-videotoolbox --enable-audiotoolbox --enable-neon
  libavutil      60. 26.100 / 60. 26.100
  libavcodec     62. 28.100 / 62. 28.100
  libavformat    62. 12.100 / 62. 12.100
  libavdevice    62.  3.100 / 62.  3.100
  libavfilter    11. 14.100 / 11. 14.100
  libswscale      9.  5.100 /  9.  5.100
  libswresample   6.  3.100 /  6.  3.100
Input #0, mp3, from '/Users/karim/quran-agent/tmp/audio_1.mp3':
  Metadata:
    title           : Al-Faatiha, Ayah 1 (1:1)
    artist          : Alafasy
    album           : The Holy Qur'an
    comment         : Brought to you by Sabbir.com
    genre           : Other
    encoder         : Lavf62.12.100
  Duration: 00:00:06.03, start: 0.023021, bitrate: 129 kb/s
  Stream #0:0: Audio: mp3 (mp3float), 48000 Hz, stereo, fltp, 128 kb/s, start 0.023021
    Metadata:
      encoder         : Lavc62.28
Input #1, image2, from '/Users/karim/quran-agent/tmp/visuals_1/image_1.jpg':
  Duration: 00:00:00.04, start: 0.000000, bitrate: 7543 kb/s
  Stream #1:0: Video: mjpeg (Progressive), yuvj420p(pc, bt470bg/unknown/unknown), 975x1300 [SAR 72:72 DAR 3:4], 25 fps, 25 tbr, 25 tbn
Input #2, image2, from '/Users/karim/quran-agent/tmp/visuals_1/image_2.jpg':
  Duration: 00:00:00.04, start: 0.000000, bitrate: 11855 kb/s
  Stream #2:0: Video: mjpeg (Progressive), yuvj420p(pc, bt470bg/unknown/unknown), 715x1300 [SAR 72:72 DAR 11:20], 25 fps, 25 tbr, 25 tbn
Input #3, image2, from '/Users/karim/quran-agent/tmp/visuals_1/image_3.jpg':
  Duration: 00:00:00.04, start: 0.000000, bitrate: 9108 kb/s
  Stream #3:0: Video: mjpeg (Progressive), yuvj420p(pc, bt470bg/unknown/unknown), 803x1300 [SAR 72:72 DAR 803:1300], 25 fps, 25 tbr, 25 tbn
Stream mapping:
  Stream #1:0 (mjpeg) -> scale:default
  Stream #2:0 (mjpeg) -> scale:default
  Stream #3:0 (mjpeg) -> scale:default
  concat:out:v0 -> Stream #0:0 (libx264)
  Stream #0:0 -> #0:1 (mp3 (mp3float) -> aac (native))
Press [q] to stop, [?] for help
[swscaler @ 0x809f50000] deprecated pixel format used, make sure you did set range correctly
[swscaler @ 0x80b3b4000] deprecated pixel format used, make sure you did set range correctly
[swscaler @ 0x80bf8c000] deprecated pixel format used, make sure you did set range correctly
[libx264 @ 0x809041f80] using SAR=1/1
[libx264 @ 0x809041f80] using cpu capabilities: ARMv8 NEON DotProd I8MM
[libx264 @ 0x809041f80] profile High, level 4.0, 4:2:0, 8-bit
[libx264 @ 0x809041f80] 264 - core 165 r3222 b35605a - H.264/MPEG-4 AVC codec - Copyleft 2003-2025 - http://www.videolan.org/x264.html - options: cabac=1 ref=2 deblock=1:0:0 analyse=0x3:0x113 me=hex subme=6 psy=1 psy_rd=1.00:0.00 mixed_ref=1 me_range=16 chroma_me=1 trellis=1 8x8dct=1 cqm=0 deadzone=21,11 fast_pskip=1 chroma_qp_offset=-2 threads=15 lookahead_threads=2 sliced_threads=0 nr=0 decimate=1 interlaced=0 bluray_compat=0 constrained_intra=0 bframes=3 b_pyramid=2 b_adapt=1 b_bias=0 direct=1 weightb=1 open_gop=0 weightp=1 keyint=250 keyint_min=25 scenecut=40 intra_refresh=0 rc_lookahead=30 rc=crf mbtree=1 crf=23.0 qcomp=0.60 qpmin=0 qpmax=69 qpstep=4 ip_ratio=1.40 aq=1:1.00
Output #0, mp4, to '/Users/karim/quran-agent/tmp/nosubs_1_1920x1080.mp4':
  Metadata:
    title           : Al-Faatiha, Ayah 1 (1:1)
    artist          : Alafasy
    album           : The Holy Qur'an
    comment         : Brought to you by Sabbir.com
    genre           : Other
    encoder         : Lavf62.12.100
  Stream #0:0: Video: h264 (avc1 / 0x31637661), yuv420p(pc, bt470bg/unknown/unknown, progressive), 1920x1080 [SAR 1:1 DAR 16:9], q=2-31, 30 fps, 15360 tbn
    Metadata:
      encoder         : Lavc62.28.100 libx264
    Side data:
      ICC Profile: (524 bytes)
      CPB properties: bitrate max/min/avg: 0/0/0 buffer size: 0 vbv_delay: N/A
  Stream #0:1: Audio: aac (LC) (mp4a / 0x6134706D), 48000 Hz, stereo, fltp, 192 kb/s
    Metadata:
      encoder         : Lavc62.28.100 aac
frame=   55 fps=0.0 q=29.0 size=     256KiB time=00:00:01.76 bitrate=1187.3kbits/s speed=3.52x elapsed=0:00:00.50    frame=  159 fps=158 q=29.0 size=     768KiB time=N/A bitrate=N/A speed=N/A elapsed=0:00:01.00    [mp4 @ 0x808c28a00] Starting second pass: moving the moov atom to the beginning of the file
[out#0/mp4 @ 0x808c0cc00] video:974KiB audio:142KiB subtitle:0KiB other streams:0KiB global headers:0KiB muxing overhead: 0.766237%
frame=  180 fps=172 q=-1.0 Lsize=    1125KiB time=00:00:05.93 bitrate=1552.7kbits/s speed=5.68x elapsed=0:00:01.04    
[libx264 @ 0x809041f80] frame I:3     Avg QP:15.86  size: 74693
[libx264 @ 0x809041f80] frame P:45    Avg QP:19.14  size:  7537
[libx264 @ 0x809041f80] frame B:132   Avg QP:22.80  size:  3287
[libx264 @ 0x809041f80] consecutive B-frames:  1.7%  0.0%  5.0% 93.3%
[libx264 @ 0x809041f80] mb I  I16..4: 16.6% 73.8%  9.6%
[libx264 @ 0x809041f80] mb P  I16..4:  1.2%  1.3%  0.0%  P16..4: 30.9%  4.7%  1.6%  0.0%  0.0%    skip:60.2%
[libx264 @ 0x809041f80] mb B  I16..4:  1.0%  0.3%  0.0%  B16..8: 21.8%  1.1%  0.0%  direct: 3.6%  skip:72.2%  L0:54.8% L1:44.6% BI: 0.6%
[libx264 @ 0x809041f80] 8x8 transform intra:54.9% inter:94.7%
[libx264 @ 0x809041f80] coded y,uvDC,uvAC intra: 28.8% 43.7% 19.7% inter: 1.5% 5.9% 0.0%
[libx264 @ 0x809041f80] i16 v,h,dc,p: 35% 47%  7% 10%
[libx264 @ 0x809041f80] i8 v,h,dc,ddl,ddr,vr,hd,vl,hu: 27% 27% 28%  2%  3%  3%  3%  3%  4%
[libx264 @ 0x809041f80] i4 v,h,dc,ddl,ddr,vr,hd,vl,hu: 28% 34% 16%  3%  6%  4%  4%  2%  2%
[libx264 @ 0x809041f80] i8c dc,h,v,p: 50% 31% 13%  6%
[libx264 @ 0x809041f80] Weighted P-Frames: Y:0.0% UV:0.0%
[libx264 @ 0x809041f80] ref P L0: 67.5% 32.5%
[libx264 @ 0x809041f80] ref B L0: 74.0% 26.0%
[libx264 @ 0x809041f80] ref B L1: 84.7% 15.3%
[libx264 @ 0x809041f80] kb/s:1329.59
[aac @ 0x809042680] Qavg: 482.096
2026-05-03 11:51:23 [32minfo[39m: renderer: FFmpeg passe1 (vidéo sans sous-titres) OK
2026-05-03 11:51:23 [32minfo[39m: renderer: ASS copié pour brûlage {"burnPath":"/Users/karim/quran-agent/tmp/assburn_1_1920x1080.ass"}
2026-05-03 11:51:23 [32minfo[39m: renderer: passe2 — binaire ffmpeg-static (libass) {"path":"/Users/karim/quran-agent/node_modules/ffmpeg-static/ffmpeg"}
2026-05-03 11:51:23 [32minfo[39m: renderer: FFmpeg passe2 (brûlage ASS) {"cwd":"/Users/karim/quran-agent/tmp","bin":"/Users/karim/quran-agent/node_modules/ffmpeg-static/ffmpeg","args":"/Users/karim/quran-agent/node_modules/ffmpeg-static/ffmpeg -y -i /Users/karim/quran-agent/tmp/nosubs_1_1920x1080.mp4 -vf ass=assburn_1_1920x1080.ass -c:v libx264 -preset fast -crf 23 -c:a copy -movflags +faststart /Users/karim/quran-agent/output/sourate_1_long.mp4"}
ffmpeg version 6.0 Copyright (c) 2000-2023 the FFmpeg developers
  built with Apple clang version 13.1.6 (clang-1316.0.21.2.5)
  configuration: --prefix=/Volumes/tempdisk/sw --extra-cflags=-fno-stack-check --arch=arm64 --cc=/usr/bin/clang --enable-gpl --enable-libvmaf --enable-libbluray --enable-libopenjpeg --enable-libopus --enable-libmp3lame --enable-libx264 --enable-libx265 --enable-libvpx --enable-libwebp --enable-libass --enable-libfreetype --enable-fontconfig --enable-libtheora --enable-libvorbis --enable-libsnappy --enable-libaom --enable-libvidstab --enable-libzimg --enable-libsvtav1 --enable-libkvazaar --enable-version3 --pkg-config-flags=--static --enable-ffplay --enable-postproc --enable-nonfree --enable-neon --enable-runtime-cpudetect --disable-indev=qtkit --disable-indev=x11grab_xcb
  libavutil      58.  2.100 / 58.  2.100
  libavcodec     60.  3.100 / 60.  3.100
  libavformat    60.  3.100 / 60.  3.100
  libavdevice    60.  1.100 / 60.  1.100
  libavfilter     9.  3.100 /  9.  3.100
  libswscale      7.  1.100 /  7.  1.100
  libswresample   4. 10.100 /  4. 10.100
  libpostproc    57.  1.100 / 57.  1.100
Input #0, mov,mp4,m4a,3gp,3g2,mj2, from '/Users/karim/quran-agent/tmp/nosubs_1_1920x1080.mp4':
  Metadata:
    major_brand     : isom
    minor_version   : 512
    compatible_brands: isomiso2avc1mp41
    title           : Al-Faatiha, Ayah 1 (1:1)
    artist          : Alafasy
    album           : The Holy Qur'an
    encoder         : Lavf62.12.100
    comment         : Brought to you by Sabbir.com
    genre           : Other
  Duration: 00:00:06.00, start: 0.000000, bitrate: 1535 kb/s
  Stream #0:0[0x1](und): Video: h264 (High) (avc1 / 0x31637661), yuvj420p(pc, bt470bg/unknown/unknown, progressive), 1920x1080 [SAR 1:1 DAR 16:9], 1330 kb/s, 30 fps, 30 tbr, 15360 tbn (default)
    Metadata:
      handler_name    : VideoHandler
      vendor_id       : [0][0][0][0]
      encoder         : Lavc62.28.100 libx264
    Side data:
      ICC Profile
  Stream #0:1[0x2](und): Audio: aac (LC) (mp4a / 0x6134706D), 48000 Hz, stereo, fltp, 192 kb/s (default)
    Metadata:
      handler_name    : SoundHandler
      vendor_id       : [0][0][0][0]
Stream mapping:
  Stream #0:0 -> #0:0 (h264 (native) -> h264 (libx264))
  Stream #0:1 -> #0:1 (copy)
Press [q] to stop, [?] for help
[Parsed_ass_0 @ 0x600003c4cbb0] libass API version: 0x1700000
[Parsed_ass_0 @ 0x600003c4cbb0] libass source: tarball: 0.17.0
[Parsed_ass_0 @ 0x600003c4cbb0] Shaper: FriBidi 1.0.12 (SIMPLE) HarfBuzz-ng 6.0.0 (COMPLEX)
[Parsed_ass_0 @ 0x600003c4cbb0] Using font provider coretext
[Parsed_ass_0 @ 0x600003c4cbb0] Added subtitle file: 'assburn_1_1920x1080.ass' (4 styles, 21 events)
[Parsed_ass_0 @ 0x600003c4cbb0] fontselect: (Arial Unicode MS, 700, 0) -> /System/Library/Fonts/Supplemental/Arial Unicode.ttf, -1, ArialUnicodeMS
[Parsed_ass_0 @ 0x600003c4cbb0] fontselect: (Arial, 400, 0) -> /System/Library/Fonts/Supplemental/Arial.ttf, -1, ArialMT
[Parsed_ass_0 @ 0x600003c4cbb0] fontselect: (Arial, 400, 100) -> /System/Library/Fonts/Supplemental/Arial Italic.ttf, -1, Arial-ItalicMT
[Parsed_ass_0 @ 0x600003c4cbb0] Glyph 0x653 not found, selecting one more font for (Arial Unicode MS, 700, 0)
[Parsed_ass_0 @ 0x600003c4cbb0] fontselect: (Arial Unicode MS, 700, 0) -> /System/Library/Fonts/GeezaPro.ttc, -1, GeezaPro-Bold
[libx264 @ 0x158104e00] using SAR=1/1
[libx264 @ 0x158104e00] using cpu capabilities: ARMv8 NEON
[libx264 @ 0x158104e00] profile High, level 4.0, 4:2:0, 8-bit
[libx264 @ 0x158104e00] 264 - core 164 r3075 66a5bc1 - H.264/MPEG-4 AVC codec - Copyleft 2003-2021 - http://www.videolan.org/x264.html - options: cabac=1 ref=2 deblock=1:0:0 analyse=0x3:0x113 me=hex subme=6 psy=1 psy_rd=1.00:0.00 mixed_ref=1 me_range=16 chroma_me=1 trellis=1 8x8dct=1 cqm=0 deadzone=21,11 fast_pskip=1 chroma_qp_offset=-2 threads=15 lookahead_threads=2 sliced_threads=0 nr=0 decimate=1 interlaced=0 bluray_compat=0 constrained_intra=0 bframes=3 b_pyramid=2 b_adapt=1 b_bias=0 direct=1 weightb=1 open_gop=0 weightp=1 keyint=250 keyint_min=25 scenecut=40 intra_refresh=0 rc_lookahead=30 rc=crf mbtree=1 crf=23.0 qcomp=0.60 qpmin=0 qpmax=69 qpstep=4 ip_ratio=1.40 aq=1:1.00
Output #0, mp4, to '/Users/karim/quran-agent/output/sourate_1_long.mp4':
  Metadata:
    major_brand     : isom
    minor_version   : 512
    compatible_brands: isomiso2avc1mp41
    title           : Al-Faatiha, Ayah 1 (1:1)
    artist          : Alafasy
    album           : The Holy Qur'an
    genre           : Other
    comment         : Brought to you by Sabbir.com
    encoder         : Lavf60.3.100
  Stream #0:0(und): Video: h264 (avc1 / 0x31637661), yuvj420p(pc, bt470bg/unknown/unknown, progressive), 1920x1080 [SAR 1:1 DAR 16:9], q=2-31, 30 fps, 15360 tbn (default)
    Metadata:
      handler_name    : VideoHandler
      vendor_id       : [0][0][0][0]
      encoder         : Lavc60.3.100 libx264
    Side data:
      cpb: bitrate max/min/avg: 0/0/0 buffer size: 0 vbv_delay: N/A
      ICC Profile
  Stream #0:1(und): Audio: aac (LC) (mp4a / 0x6134706D), 48000 Hz, stereo, fltp, 192 kb/s (default)
    Metadata:
      handler_name    : SoundHandler
      vendor_id       : [0][0][0][0]
frame=    0 fps=0.0 q=0.0 size=       0kB time=00:00:00.32 bitrate=   1.2kbits/s speed=59.7x    frame=   14 fps=0.0 q=29.0 size=     256kB time=00:00:02.45 bitrate= 855.0kbits/s speed=4.85x    frame=   87 fps= 86 q=29.0 size=     768kB time=00:00:04.88 bitrate=1287.9kbits/s speed=4.83x    [mp4 @ 0x158104080] Starting second pass: moving the moov atom to the beginning of the file
frame=  180 fps=127 q=-1.0 Lsize=    1641kB time=00:00:05.97 bitrate=2250.1kbits/s speed=4.22x    
video:1491kB audio:142kB subtitle:0kB other streams:0kB global headers:0kB muxing overhead: 0.524863%
[libx264 @ 0x158104e00] frame I:1     Avg QP:19.66  size:210998
[libx264 @ 0x158104e00] frame P:45    Avg QP:20.92  size: 17709
[libx264 @ 0x158104e00] frame B:134   Avg QP:23.62  size:  3864
[libx264 @ 0x158104e00] consecutive B-frames:  0.6%  0.0%  1.7% 97.8%
[libx264 @ 0x158104e00] mb I  I16..4: 23.1% 48.8% 28.1%
[libx264 @ 0x158104e00] mb P  I16..4:  1.9%  3.7%  0.6%  P16..4: 32.2%  5.0%  2.5%  0.0%  0.0%    skip:54.0%
[libx264 @ 0x158104e00] mb B  I16..4:  0.9%  0.4%  0.0%  B16..8: 19.6%  1.7%  0.1%  direct: 4.4%  skip:73.0%  L0:48.6% L1:50.2% BI: 1.2%
[libx264 @ 0x158104e00] 8x8 transform intra:48.0% inter:76.5%
[libx264 @ 0x158104e00] coded y,uvDC,uvAC intra: 25.9% 47.0% 15.9% inter: 2.6% 7.7% 0.3%
[libx264 @ 0x158104e00] i16 v,h,dc,p: 39% 40% 11% 11%
[libx264 @ 0x158104e00] i8 v,h,dc,ddl,ddr,vr,hd,vl,hu: 21% 26% 38%  2%  3%  2%  3%  2%  3%
[libx264 @ 0x158104e00] i4 v,h,dc,ddl,ddr,vr,hd,vl,hu: 31% 28% 10%  3%  5%  5%  6%  5%  7%
[libx264 @ 0x158104e00] i8c dc,h,v,p: 51% 31% 13%  5%
[libx264 @ 0x158104e00] Weighted P-Frames: Y:0.0% UV:0.0%
[libx264 @ 0x158104e00] ref P L0: 64.8% 35.2%
[libx264 @ 0x158104e00] ref B L0: 71.5% 28.5%
[libx264 @ 0x158104e00] ref B L1: 85.3% 14.7%
[libx264 @ 0x158104e00] kb/s:2034.17
2026-05-03 11:51:24 [32minfo[39m: renderer: FFmpeg passe2 (brûlage ASS) OK
2026-05-03 11:51:24 [32minfo[39m: renderer: fichier temporaire supprimé {"tempNoSubs":"/Users/karim/quran-agent/tmp/nosubs_1_1920x1080.mp4"}
2026-05-03 11:51:24 [32minfo[39m: renderer:test — terminé {"shortPath":"/Users/karim/quran-agent/output/sourate_1_short.mp4","longPath":"/Users/karim/quran-agent/output/sourate_1_long.mp4"}
✅ Short (9:16): /Users/karim/quran-agent/output/sourate_1_short.mp4
✅ Long (16:9): /Users/karim/quran-agent/output/sourate_1_long.mp4
